# xmcd
#
# Track frame offsets:
#	150
#	12553
#	38625
#	83169
#	112648
#	149329
#	163815
#	197767
#	234967
#	263259
#	278383
#	287269
#
# Disc length: 4377 seconds
#
# Revision: 0
# Processed by: cddbd v1.5.2PL0 Copyright (c) Steve Scherf et al.
# Submitted via: audiograbber 1.83.01
#
DISCID=8c11170c
DTITLE=Grateful Dead - 93-09-26 Boston Garden, Boston MA
DYEAR=1900
DGENRE=
TTITLE0=Tuning
TTITLE1=Jack Straw
TTITLE2=Althea
TTITLE3=Walkin' Blues
TTITLE4=High Time
TTITLE5=Me and My Uncle
TTITLE6=Maggie's Farm
TTITLE7=Lazy River Road
TTITLE8=Easy Answers
TTITLE9=Don't Ease Me In
TTITLE10=Tuning
TTITLE11=Iko Iko
EXTD=
EXTT0=
EXTT1=
EXTT2=
EXTT3=
EXTT4=
EXTT5=
EXTT6=
EXTT7=
EXTT8=
EXTT9=
EXTT10=
EXTT11=
PLAYORDER=
